<mxfile host="app.diagrams.net" modified="2020-10-07T17:43:50.931Z" agent="5.0 (X11; Linux x86_64) AppleWebKit/537.36 (KHTML, like Gecko) Chrome/85.0.4183.121 Safari/537.36" etag="w1sVU1nCWrPGkuDinL6w" version="13.7.5" type="github" pages="3">
  <diagram id="C5RBs43oDa-KdzZeNtuy" name="Page-1">
    <mxGraphModel dx="1102" dy="621" grid="1" gridSize="10" guides="1" tooltips="1" connect="1" arrows="1" fold="1" page="1" pageScale="1" pageWidth="827" pageHeight="1169" math="0" shadow="0">
      <root>
        <mxCell id="WIyWlLk6GJQsqaUBKTNV-0" />
        <mxCell id="WIyWlLk6GJQsqaUBKTNV-1" parent="WIyWlLk6GJQsqaUBKTNV-0" />
        <mxCell id="v_-gOQtREwJvKuPBqVTX-77" value="" style="edgeStyle=elbowEdgeStyle;elbow=horizontal;endArrow=ERmany;html=1;entryX=0;entryY=0.5;entryDx=0;entryDy=0;exitX=0;exitY=0.5;exitDx=0;exitDy=0;endFill=0;endSize=12;" parent="WIyWlLk6GJQsqaUBKTNV-1" source="v_-gOQtREwJvKuPBqVTX-29" target="v_-gOQtREwJvKuPBqVTX-36" edge="1">
          <mxGeometry width="50" height="50" relative="1" as="geometry">
            <mxPoint x="560" y="540" as="sourcePoint" />
            <mxPoint x="500" y="650" as="targetPoint" />
            <Array as="points">
              <mxPoint x="520" y="360" />
              <mxPoint x="530" y="360" />
              <mxPoint x="500" y="330" />
              <mxPoint x="510" y="360" />
              <mxPoint x="540" y="410" />
            </Array>
          </mxGeometry>
        </mxCell>
        <mxCell id="I9_c61Gy7zSK1cR9WGPF-0" value="Text" style="edgeLabel;html=1;align=center;verticalAlign=middle;resizable=0;points=[];" parent="v_-gOQtREwJvKuPBqVTX-77" vertex="1" connectable="0">
          <mxGeometry x="-0.184" y="4" relative="1" as="geometry">
            <mxPoint as="offset" />
          </mxGeometry>
        </mxCell>
        <mxCell id="v_-gOQtREwJvKuPBqVTX-78" value="" style="edgeStyle=elbowEdgeStyle;elbow=horizontal;endArrow=ERmany;html=1;entryX=1;entryY=0.5;entryDx=0;entryDy=0;exitX=0;exitY=0.5;exitDx=0;exitDy=0;endFill=0;jumpSize=6;endSize=12;" parent="WIyWlLk6GJQsqaUBKTNV-1" source="v_-gOQtREwJvKuPBqVTX-29" target="v_-gOQtREwJvKuPBqVTX-61" edge="1">
          <mxGeometry width="50" height="50" relative="1" as="geometry">
            <mxPoint x="450" y="699" as="sourcePoint" />
            <mxPoint x="530" y="607" as="targetPoint" />
            <Array as="points">
              <mxPoint x="470" y="310" />
            </Array>
          </mxGeometry>
        </mxCell>
        <mxCell id="v_-gOQtREwJvKuPBqVTX-81" value="" style="edgeStyle=elbowEdgeStyle;elbow=horizontal;endArrow=ERmany;html=1;entryX=1;entryY=0.5;entryDx=0;entryDy=0;exitX=0;exitY=0.5;exitDx=0;exitDy=0;endFill=0;endSize=12;startArrow=ERmany;startFill=0;targetPerimeterSpacing=0;startSize=12;" parent="WIyWlLk6GJQsqaUBKTNV-1" source="v_-gOQtREwJvKuPBqVTX-27" target="v_-gOQtREwJvKuPBqVTX-1" edge="1">
          <mxGeometry width="50" height="50" relative="1" as="geometry">
            <mxPoint x="310" y="270" as="sourcePoint" />
            <mxPoint x="230" y="362" as="targetPoint" />
          </mxGeometry>
        </mxCell>
        <mxCell id="v_-gOQtREwJvKuPBqVTX-82" value="" style="edgeStyle=elbowEdgeStyle;elbow=horizontal;endArrow=ERmany;html=1;entryX=1;entryY=0.5;entryDx=0;entryDy=0;exitX=0;exitY=0.5;exitDx=0;exitDy=0;endFill=0;endSize=12;startArrow=none;startFill=0;" parent="WIyWlLk6GJQsqaUBKTNV-1" source="v_-gOQtREwJvKuPBqVTX-22" target="v_-gOQtREwJvKuPBqVTX-39" edge="1">
          <mxGeometry width="50" height="50" relative="1" as="geometry">
            <mxPoint x="640" y="442" as="sourcePoint" />
            <mxPoint x="530" y="359.9999999999999" as="targetPoint" />
          </mxGeometry>
        </mxCell>
        <mxCell id="v_-gOQtREwJvKuPBqVTX-0" value="Product" style="swimlane;fontStyle=1;align=center;verticalAlign=top;childLayout=stackLayout;horizontal=1;startSize=26;horizontalStack=0;resizeParent=1;resizeParentMax=0;resizeLast=0;collapsible=1;marginBottom=0;" parent="WIyWlLk6GJQsqaUBKTNV-1" vertex="1">
          <mxGeometry x="70" y="40" width="160" height="182" as="geometry" />
        </mxCell>
        <mxCell id="v_-gOQtREwJvKuPBqVTX-1" value="+ Id: int [PK]" style="text;strokeColor=none;fillColor=none;align=left;verticalAlign=top;spacingLeft=4;spacingRight=4;overflow=hidden;rotatable=0;points=[[0,0.5],[1,0.5]];portConstraint=eastwest;" parent="v_-gOQtREwJvKuPBqVTX-0" vertex="1">
          <mxGeometry y="26" width="160" height="26" as="geometry" />
        </mxCell>
        <mxCell id="v_-gOQtREwJvKuPBqVTX-3" value="+ Name: varchar" style="text;strokeColor=none;fillColor=none;align=left;verticalAlign=top;spacingLeft=4;spacingRight=4;overflow=hidden;rotatable=0;points=[[0,0.5],[1,0.5]];portConstraint=eastwest;" parent="v_-gOQtREwJvKuPBqVTX-0" vertex="1">
          <mxGeometry y="52" width="160" height="26" as="geometry" />
        </mxCell>
        <mxCell id="v_-gOQtREwJvKuPBqVTX-6" value="+ Calories: float&#xa;" style="text;strokeColor=none;fillColor=none;align=left;verticalAlign=top;spacingLeft=4;spacingRight=4;overflow=hidden;rotatable=0;points=[[0,0.5],[1,0.5]];portConstraint=eastwest;" parent="v_-gOQtREwJvKuPBqVTX-0" vertex="1">
          <mxGeometry y="78" width="160" height="26" as="geometry" />
        </mxCell>
        <mxCell id="v_-gOQtREwJvKuPBqVTX-9" value="+ Carbohydrates: float&#xa;" style="text;strokeColor=none;fillColor=none;align=left;verticalAlign=top;spacingLeft=4;spacingRight=4;overflow=hidden;rotatable=0;points=[[0,0.5],[1,0.5]];portConstraint=eastwest;" parent="v_-gOQtREwJvKuPBqVTX-0" vertex="1">
          <mxGeometry y="104" width="160" height="26" as="geometry" />
        </mxCell>
        <mxCell id="v_-gOQtREwJvKuPBqVTX-10" value="+ Protein: float&#xa;" style="text;strokeColor=none;fillColor=none;align=left;verticalAlign=top;spacingLeft=4;spacingRight=4;overflow=hidden;rotatable=0;points=[[0,0.5],[1,0.5]];portConstraint=eastwest;" parent="v_-gOQtREwJvKuPBqVTX-0" vertex="1">
          <mxGeometry y="130" width="160" height="26" as="geometry" />
        </mxCell>
        <mxCell id="v_-gOQtREwJvKuPBqVTX-11" value="+ Fat: float&#xa;" style="text;strokeColor=none;fillColor=none;align=left;verticalAlign=top;spacingLeft=4;spacingRight=4;overflow=hidden;rotatable=0;points=[[0,0.5],[1,0.5]];portConstraint=eastwest;" parent="v_-gOQtREwJvKuPBqVTX-0" vertex="1">
          <mxGeometry y="156" width="160" height="26" as="geometry" />
        </mxCell>
        <mxCell id="v_-gOQtREwJvKuPBqVTX-84" value="" style="edgeStyle=elbowEdgeStyle;elbow=horizontal;endArrow=ERmany;html=1;entryX=1;entryY=0.5;entryDx=0;entryDy=0;exitX=0;exitY=0.5;exitDx=0;exitDy=0;endFill=0;jumpSize=6;endSize=12;" parent="WIyWlLk6GJQsqaUBKTNV-1" source="v_-gOQtREwJvKuPBqVTX-29" target="v_-gOQtREwJvKuPBqVTX-83" edge="1">
          <mxGeometry width="50" height="50" relative="1" as="geometry">
            <mxPoint x="570" y="329" as="sourcePoint" />
            <mxPoint x="490" y="365" as="targetPoint" />
            <Array as="points">
              <mxPoint x="470" y="210" />
            </Array>
          </mxGeometry>
        </mxCell>
        <mxCell id="v_-gOQtREwJvKuPBqVTX-85" value="" style="edgeStyle=elbowEdgeStyle;elbow=horizontal;endArrow=ERmany;html=1;exitX=0;exitY=0.5;exitDx=0;exitDy=0;endFill=0;jumpSize=6;endSize=12;entryX=0;entryY=0.5;entryDx=0;entryDy=0;" parent="WIyWlLk6GJQsqaUBKTNV-1" source="v_-gOQtREwJvKuPBqVTX-29" target="v_-gOQtREwJvKuPBqVTX-86" edge="1">
          <mxGeometry width="50" height="50" relative="1" as="geometry">
            <mxPoint x="570" y="279" as="sourcePoint" />
            <mxPoint x="530" y="130" as="targetPoint" />
            <Array as="points">
              <mxPoint x="520" y="220" />
              <mxPoint x="500" y="210" />
              <mxPoint x="510" y="210" />
              <mxPoint x="540" y="210" />
            </Array>
          </mxGeometry>
        </mxCell>
        <mxCell id="v_-gOQtREwJvKuPBqVTX-12" value="Meal" style="swimlane;fontStyle=1;align=center;verticalAlign=top;childLayout=stackLayout;horizontal=1;startSize=26;horizontalStack=0;resizeParent=1;resizeParentMax=0;resizeLast=0;collapsible=1;marginBottom=0;" parent="WIyWlLk6GJQsqaUBKTNV-1" vertex="1">
          <mxGeometry x="270" y="40" width="160" height="182" as="geometry" />
        </mxCell>
        <mxCell id="v_-gOQtREwJvKuPBqVTX-13" value="+ Id: int [PK]" style="text;strokeColor=none;fillColor=none;align=left;verticalAlign=top;spacingLeft=4;spacingRight=4;overflow=hidden;rotatable=0;points=[[0,0.5],[1,0.5]];portConstraint=eastwest;" parent="v_-gOQtREwJvKuPBqVTX-12" vertex="1">
          <mxGeometry y="26" width="160" height="26" as="geometry" />
        </mxCell>
        <mxCell id="v_-gOQtREwJvKuPBqVTX-39" value="+ CompositionId: int" style="text;strokeColor=none;fillColor=none;align=left;verticalAlign=top;spacingLeft=4;spacingRight=4;overflow=hidden;rotatable=0;points=[[0,0.5],[1,0.5]];portConstraint=eastwest;" parent="v_-gOQtREwJvKuPBqVTX-12" vertex="1">
          <mxGeometry y="52" width="160" height="26" as="geometry" />
        </mxCell>
        <mxCell id="v_-gOQtREwJvKuPBqVTX-27" value="+ ProductId : int&#xa;" style="text;strokeColor=none;fillColor=none;align=left;verticalAlign=top;spacingLeft=4;spacingRight=4;overflow=hidden;rotatable=0;points=[[0,0.5],[1,0.5]];portConstraint=eastwest;" parent="v_-gOQtREwJvKuPBqVTX-12" vertex="1">
          <mxGeometry y="78" width="160" height="26" as="geometry" />
        </mxCell>
        <mxCell id="v_-gOQtREwJvKuPBqVTX-83" value="+ UserId : int&#xa;" style="text;strokeColor=none;fillColor=none;align=left;verticalAlign=top;spacingLeft=4;spacingRight=4;overflow=hidden;rotatable=0;points=[[0,0.5],[1,0.5]];portConstraint=eastwest;" parent="v_-gOQtREwJvKuPBqVTX-12" vertex="1">
          <mxGeometry y="104" width="160" height="26" as="geometry" />
        </mxCell>
        <mxCell id="v_-gOQtREwJvKuPBqVTX-16" value="+ Weight : float&#xa;" style="text;strokeColor=none;fillColor=none;align=left;verticalAlign=top;spacingLeft=4;spacingRight=4;overflow=hidden;rotatable=0;points=[[0,0.5],[1,0.5]];portConstraint=eastwest;" parent="v_-gOQtREwJvKuPBqVTX-12" vertex="1">
          <mxGeometry y="130" width="160" height="26" as="geometry" />
        </mxCell>
        <mxCell id="v_-gOQtREwJvKuPBqVTX-19" value="+ Date :datetime&#xa;" style="text;strokeColor=none;fillColor=none;align=left;verticalAlign=top;spacingLeft=4;spacingRight=4;overflow=hidden;rotatable=0;points=[[0,0.5],[1,0.5]];portConstraint=eastwest;" parent="v_-gOQtREwJvKuPBqVTX-12" vertex="1">
          <mxGeometry y="156" width="160" height="26" as="geometry" />
        </mxCell>
        <mxCell id="v_-gOQtREwJvKuPBqVTX-57" value="UserNutrition" style="swimlane;fontStyle=1;align=center;verticalAlign=top;childLayout=stackLayout;horizontal=1;startSize=26;horizontalStack=0;resizeParent=1;resizeParentMax=0;resizeLast=0;collapsible=1;marginBottom=0;" parent="WIyWlLk6GJQsqaUBKTNV-1" vertex="1">
          <mxGeometry x="270" y="280" width="160" height="234" as="geometry">
            <mxRectangle x="520" y="720" width="110" height="26" as="alternateBounds" />
          </mxGeometry>
        </mxCell>
        <mxCell id="v_-gOQtREwJvKuPBqVTX-58" value="+ Id: int [PK]" style="text;strokeColor=none;fillColor=none;align=left;verticalAlign=top;spacingLeft=4;spacingRight=4;overflow=hidden;rotatable=0;points=[[0,0.5],[1,0.5]];portConstraint=eastwest;" parent="v_-gOQtREwJvKuPBqVTX-57" vertex="1">
          <mxGeometry y="26" width="160" height="26" as="geometry" />
        </mxCell>
        <mxCell id="v_-gOQtREwJvKuPBqVTX-61" value="+ UserId : int&#xa;" style="text;strokeColor=none;fillColor=none;align=left;verticalAlign=top;spacingLeft=4;spacingRight=4;overflow=hidden;rotatable=0;points=[[0,0.5],[1,0.5]];portConstraint=eastwest;" parent="v_-gOQtREwJvKuPBqVTX-57" vertex="1">
          <mxGeometry y="52" width="160" height="26" as="geometry" />
        </mxCell>
        <mxCell id="v_-gOQtREwJvKuPBqVTX-62" value="+ Calories: float&#xa;" style="text;strokeColor=none;fillColor=none;align=left;verticalAlign=top;spacingLeft=4;spacingRight=4;overflow=hidden;rotatable=0;points=[[0,0.5],[1,0.5]];portConstraint=eastwest;" parent="v_-gOQtREwJvKuPBqVTX-57" vertex="1">
          <mxGeometry y="78" width="160" height="26" as="geometry" />
        </mxCell>
        <mxCell id="v_-gOQtREwJvKuPBqVTX-63" value="+ Carbohydrates: float&#xa;" style="text;strokeColor=none;fillColor=none;align=left;verticalAlign=top;spacingLeft=4;spacingRight=4;overflow=hidden;rotatable=0;points=[[0,0.5],[1,0.5]];portConstraint=eastwest;" parent="v_-gOQtREwJvKuPBqVTX-57" vertex="1">
          <mxGeometry y="104" width="160" height="26" as="geometry" />
        </mxCell>
        <mxCell id="v_-gOQtREwJvKuPBqVTX-64" value="+ Protein: float&#xa;" style="text;strokeColor=none;fillColor=none;align=left;verticalAlign=top;spacingLeft=4;spacingRight=4;overflow=hidden;rotatable=0;points=[[0,0.5],[1,0.5]];portConstraint=eastwest;" parent="v_-gOQtREwJvKuPBqVTX-57" vertex="1">
          <mxGeometry y="130" width="160" height="26" as="geometry" />
        </mxCell>
        <mxCell id="v_-gOQtREwJvKuPBqVTX-65" value="+ Fat: float&#xa;" style="text;strokeColor=none;fillColor=none;align=left;verticalAlign=top;spacingLeft=4;spacingRight=4;overflow=hidden;rotatable=0;points=[[0,0.5],[1,0.5]];portConstraint=eastwest;" parent="v_-gOQtREwJvKuPBqVTX-57" vertex="1">
          <mxGeometry y="156" width="160" height="26" as="geometry" />
        </mxCell>
        <mxCell id="v_-gOQtREwJvKuPBqVTX-66" value="+ Date: datetime&#xa;" style="text;strokeColor=none;fillColor=none;align=left;verticalAlign=top;spacingLeft=4;spacingRight=4;overflow=hidden;rotatable=0;points=[[0,0.5],[1,0.5]];portConstraint=eastwest;" parent="v_-gOQtREwJvKuPBqVTX-57" vertex="1">
          <mxGeometry y="182" width="160" height="26" as="geometry" />
        </mxCell>
        <mxCell id="v_-gOQtREwJvKuPBqVTX-67" value="+ CurrentNutrition: bit&#xa;" style="text;strokeColor=none;fillColor=none;align=left;verticalAlign=top;spacingLeft=4;spacingRight=4;overflow=hidden;rotatable=0;points=[[0,0.5],[1,0.5]];portConstraint=eastwest;" parent="v_-gOQtREwJvKuPBqVTX-57" vertex="1">
          <mxGeometry y="208" width="160" height="26" as="geometry" />
        </mxCell>
        <mxCell id="v_-gOQtREwJvKuPBqVTX-20" value="Dish" style="swimlane;fontStyle=1;align=center;verticalAlign=top;childLayout=stackLayout;horizontal=1;startSize=26;horizontalStack=0;resizeParent=1;resizeParentMax=0;resizeLast=0;collapsible=1;marginBottom=0;" parent="WIyWlLk6GJQsqaUBKTNV-1" vertex="1">
          <mxGeometry x="560" y="40" width="160" height="156" as="geometry" />
        </mxCell>
        <mxCell id="v_-gOQtREwJvKuPBqVTX-21" value="+ Id: int [PK]" style="text;strokeColor=none;fillColor=none;align=left;verticalAlign=top;spacingLeft=4;spacingRight=4;overflow=hidden;rotatable=0;points=[[0,0.5],[1,0.5]];portConstraint=eastwest;" parent="v_-gOQtREwJvKuPBqVTX-20" vertex="1">
          <mxGeometry y="26" width="160" height="26" as="geometry" />
        </mxCell>
        <mxCell id="v_-gOQtREwJvKuPBqVTX-22" value="+ CompositionId : int&#xa;" style="text;strokeColor=none;fillColor=none;align=left;verticalAlign=top;spacingLeft=4;spacingRight=4;overflow=hidden;rotatable=0;points=[[0,0.5],[1,0.5]];portConstraint=eastwest;" parent="v_-gOQtREwJvKuPBqVTX-20" vertex="1">
          <mxGeometry y="52" width="160" height="26" as="geometry" />
        </mxCell>
        <mxCell id="v_-gOQtREwJvKuPBqVTX-23" value="+ Name : varchar&#xa;" style="text;strokeColor=none;fillColor=none;align=left;verticalAlign=top;spacingLeft=4;spacingRight=4;overflow=hidden;rotatable=0;points=[[0,0.5],[1,0.5]];portConstraint=eastwest;" parent="v_-gOQtREwJvKuPBqVTX-20" vertex="1">
          <mxGeometry y="78" width="160" height="26" as="geometry" />
        </mxCell>
        <mxCell id="v_-gOQtREwJvKuPBqVTX-86" value="+ UserId : int&#xa;" style="text;strokeColor=none;fillColor=none;align=left;verticalAlign=top;spacingLeft=4;spacingRight=4;overflow=hidden;rotatable=0;points=[[0,0.5],[1,0.5]];portConstraint=eastwest;" parent="v_-gOQtREwJvKuPBqVTX-20" vertex="1">
          <mxGeometry y="104" width="160" height="26" as="geometry" />
        </mxCell>
        <mxCell id="v_-gOQtREwJvKuPBqVTX-24" value="+ Weight : float&#xa;" style="text;strokeColor=none;fillColor=none;align=left;verticalAlign=top;spacingLeft=4;spacingRight=4;overflow=hidden;rotatable=0;points=[[0,0.5],[1,0.5]];portConstraint=eastwest;" parent="v_-gOQtREwJvKuPBqVTX-20" vertex="1">
          <mxGeometry y="130" width="160" height="26" as="geometry" />
        </mxCell>
        <mxCell id="v_-gOQtREwJvKuPBqVTX-34" value="UserWeight" style="swimlane;fontStyle=1;align=center;verticalAlign=top;childLayout=stackLayout;horizontal=1;startSize=26;horizontalStack=0;resizeParent=1;resizeParentMax=0;resizeLast=0;collapsible=1;marginBottom=0;" parent="WIyWlLk6GJQsqaUBKTNV-1" vertex="1">
          <mxGeometry x="560" y="384" width="160" height="130" as="geometry">
            <mxRectangle x="520" y="558" width="100" height="26" as="alternateBounds" />
          </mxGeometry>
        </mxCell>
        <mxCell id="v_-gOQtREwJvKuPBqVTX-35" value="+ Id: int [PK]" style="text;strokeColor=none;fillColor=none;align=left;verticalAlign=top;spacingLeft=4;spacingRight=4;overflow=hidden;rotatable=0;points=[[0,0.5],[1,0.5]];portConstraint=eastwest;" parent="v_-gOQtREwJvKuPBqVTX-34" vertex="1">
          <mxGeometry y="26" width="160" height="26" as="geometry" />
        </mxCell>
        <mxCell id="v_-gOQtREwJvKuPBqVTX-36" value="+ UserId : int&#xa;" style="text;strokeColor=none;fillColor=none;align=left;verticalAlign=top;spacingLeft=4;spacingRight=4;overflow=hidden;rotatable=0;points=[[0,0.5],[1,0.5]];portConstraint=eastwest;" parent="v_-gOQtREwJvKuPBqVTX-34" vertex="1">
          <mxGeometry y="52" width="160" height="26" as="geometry" />
        </mxCell>
        <mxCell id="v_-gOQtREwJvKuPBqVTX-37" value="+ Weight : float&#xa;&#xa;" style="text;strokeColor=none;fillColor=none;align=left;verticalAlign=top;spacingLeft=4;spacingRight=4;overflow=hidden;rotatable=0;points=[[0,0.5],[1,0.5]];portConstraint=eastwest;" parent="v_-gOQtREwJvKuPBqVTX-34" vertex="1">
          <mxGeometry y="78" width="160" height="26" as="geometry" />
        </mxCell>
        <mxCell id="v_-gOQtREwJvKuPBqVTX-38" value="+ Date : datetime&#xa;&#xa;&#xa;" style="text;strokeColor=none;fillColor=none;align=left;verticalAlign=top;spacingLeft=4;spacingRight=4;overflow=hidden;rotatable=0;points=[[0,0.5],[1,0.5]];portConstraint=eastwest;" parent="v_-gOQtREwJvKuPBqVTX-34" vertex="1">
          <mxGeometry y="104" width="160" height="26" as="geometry" />
        </mxCell>
        <mxCell id="v_-gOQtREwJvKuPBqVTX-28" value="User" style="swimlane;fontStyle=1;align=center;verticalAlign=top;childLayout=stackLayout;horizontal=1;startSize=26;horizontalStack=0;resizeParent=1;resizeParentMax=0;resizeLast=0;collapsible=1;marginBottom=0;" parent="WIyWlLk6GJQsqaUBKTNV-1" vertex="1">
          <mxGeometry x="560" y="240" width="160" height="104" as="geometry">
            <mxRectangle x="280" y="650" width="60" height="26" as="alternateBounds" />
          </mxGeometry>
        </mxCell>
        <mxCell id="v_-gOQtREwJvKuPBqVTX-29" value="+ Id: int [PK]" style="text;strokeColor=none;fillColor=none;align=left;verticalAlign=top;spacingLeft=4;spacingRight=4;overflow=hidden;rotatable=0;points=[[0,0.5],[1,0.5]];portConstraint=eastwest;" parent="v_-gOQtREwJvKuPBqVTX-28" vertex="1">
          <mxGeometry y="26" width="160" height="26" as="geometry" />
        </mxCell>
        <mxCell id="v_-gOQtREwJvKuPBqVTX-30" value="+ Name : int&#xa;" style="text;strokeColor=none;fillColor=none;align=left;verticalAlign=top;spacingLeft=4;spacingRight=4;overflow=hidden;rotatable=0;points=[[0,0.5],[1,0.5]];portConstraint=eastwest;" parent="v_-gOQtREwJvKuPBqVTX-28" vertex="1">
          <mxGeometry y="52" width="160" height="26" as="geometry" />
        </mxCell>
        <mxCell id="v_-gOQtREwJvKuPBqVTX-40" value="+ Surname : int&#xa;" style="text;strokeColor=none;fillColor=none;align=left;verticalAlign=top;spacingLeft=4;spacingRight=4;overflow=hidden;rotatable=0;points=[[0,0.5],[1,0.5]];portConstraint=eastwest;" parent="v_-gOQtREwJvKuPBqVTX-28" vertex="1">
          <mxGeometry y="78" width="160" height="26" as="geometry" />
        </mxCell>
      </root>
    </mxGraphModel>
  </diagram>
  <diagram id="fuiRef03Iu1HEWEEDuds" name="Main Page">
    <mxGraphModel dx="1995" dy="1134" grid="1" gridSize="10" guides="1" tooltips="1" connect="1" arrows="1" fold="1" page="1" pageScale="1" pageWidth="850" pageHeight="1100" math="0" shadow="0">
      <root>
        <mxCell id="KjkQYHto7W4-pX4ocJMv-0" />
        <mxCell id="KjkQYHto7W4-pX4ocJMv-1" parent="KjkQYHto7W4-pX4ocJMv-0" />
        <mxCell id="KjkQYHto7W4-pX4ocJMv-2" value="" style="rounded=0;whiteSpace=wrap;html=1;" vertex="1" parent="KjkQYHto7W4-pX4ocJMv-1">
          <mxGeometry x="40" y="40" width="770" height="1010" as="geometry" />
        </mxCell>
        <mxCell id="KjkQYHto7W4-pX4ocJMv-4" value="" style="rounded=1;whiteSpace=wrap;html=1;fillColor=none;" vertex="1" parent="KjkQYHto7W4-pX4ocJMv-1">
          <mxGeometry x="75" y="160" width="700" height="260" as="geometry" />
        </mxCell>
        <mxCell id="KjkQYHto7W4-pX4ocJMv-3" value="" style="rounded=0;whiteSpace=wrap;html=1;" vertex="1" parent="KjkQYHto7W4-pX4ocJMv-1">
          <mxGeometry x="40" y="40" width="770" height="90" as="geometry" />
        </mxCell>
        <mxCell id="KjkQYHto7W4-pX4ocJMv-6" value="" style="rounded=1;whiteSpace=wrap;html=1;" vertex="1" parent="KjkQYHto7W4-pX4ocJMv-1">
          <mxGeometry x="440" y="440" width="335" height="260" as="geometry" />
        </mxCell>
        <mxCell id="KjkQYHto7W4-pX4ocJMv-9" value="" style="rounded=1;whiteSpace=wrap;html=1;" vertex="1" parent="KjkQYHto7W4-pX4ocJMv-1">
          <mxGeometry x="75" y="440" width="335" height="260" as="geometry" />
        </mxCell>
        <mxCell id="KjkQYHto7W4-pX4ocJMv-10" value="" style="rounded=1;whiteSpace=wrap;html=1;" vertex="1" parent="KjkQYHto7W4-pX4ocJMv-1">
          <mxGeometry x="440" y="730" width="335" height="260" as="geometry" />
        </mxCell>
        <mxCell id="KjkQYHto7W4-pX4ocJMv-11" value="" style="rounded=1;whiteSpace=wrap;html=1;" vertex="1" parent="KjkQYHto7W4-pX4ocJMv-1">
          <mxGeometry x="75" y="730" width="335" height="260" as="geometry" />
        </mxCell>
        <mxCell id="KjkQYHto7W4-pX4ocJMv-26" value="" style="endArrow=none;html=1;" edge="1" parent="KjkQYHto7W4-pX4ocJMv-1">
          <mxGeometry width="50" height="50" relative="1" as="geometry">
            <mxPoint x="765" y="250" as="sourcePoint" />
            <mxPoint x="85" y="250" as="targetPoint" />
          </mxGeometry>
        </mxCell>
        <mxCell id="KjkQYHto7W4-pX4ocJMv-27" value="" style="endArrow=none;html=1;" edge="1" parent="KjkQYHto7W4-pX4ocJMv-1">
          <mxGeometry width="50" height="50" relative="1" as="geometry">
            <mxPoint x="765.0000000000005" y="290.0000000000002" as="sourcePoint" />
            <mxPoint x="85" y="290.0000000000002" as="targetPoint" />
          </mxGeometry>
        </mxCell>
        <mxCell id="KjkQYHto7W4-pX4ocJMv-28" value="" style="endArrow=none;html=1;" edge="1" parent="KjkQYHto7W4-pX4ocJMv-1">
          <mxGeometry width="50" height="50" relative="1" as="geometry">
            <mxPoint x="120" y="65" as="sourcePoint" />
            <mxPoint x="60" y="65.00000000000023" as="targetPoint" />
          </mxGeometry>
        </mxCell>
        <mxCell id="KjkQYHto7W4-pX4ocJMv-29" value="" style="endArrow=none;html=1;" edge="1" parent="KjkQYHto7W4-pX4ocJMv-1">
          <mxGeometry width="50" height="50" relative="1" as="geometry">
            <mxPoint x="135" y="84.85999999999977" as="sourcePoint" />
            <mxPoint x="75" y="84.86000000000023" as="targetPoint" />
          </mxGeometry>
        </mxCell>
        <mxCell id="KjkQYHto7W4-pX4ocJMv-30" value="" style="endArrow=none;html=1;" edge="1" parent="KjkQYHto7W4-pX4ocJMv-1">
          <mxGeometry width="50" height="50" relative="1" as="geometry">
            <mxPoint x="120" y="104.99999999999977" as="sourcePoint" />
            <mxPoint x="60" y="105.00000000000023" as="targetPoint" />
          </mxGeometry>
        </mxCell>
        <mxCell id="KjkQYHto7W4-pX4ocJMv-33" value="" style="shape=image;html=1;verticalAlign=top;verticalLabelPosition=bottom;labelBackgroundColor=#ffffff;imageAspect=0;aspect=fixed;image=https://cdn0.iconfinder.com/data/icons/business-collection-2027/60/barcode-1-128.png;fillColor=none;" vertex="1" parent="KjkQYHto7W4-pX4ocJMv-1">
          <mxGeometry x="165.5" y="783" width="154" height="154" as="geometry" />
        </mxCell>
        <mxCell id="KjkQYHto7W4-pX4ocJMv-34" value="" style="shape=image;html=1;verticalAlign=top;verticalLabelPosition=bottom;labelBackgroundColor=#ffffff;imageAspect=0;aspect=fixed;image=https://cdn2.iconfinder.com/data/icons/infographic-bar-vol-12-2/512/3-128.png;fillColor=none;" vertex="1" parent="KjkQYHto7W4-pX4ocJMv-1">
          <mxGeometry x="537" y="789.5" width="141" height="141" as="geometry" />
        </mxCell>
        <mxCell id="KjkQYHto7W4-pX4ocJMv-35" value="" style="shape=image;html=1;verticalAlign=top;verticalLabelPosition=bottom;labelBackgroundColor=#ffffff;imageAspect=0;aspect=fixed;image=https://cdn2.iconfinder.com/data/icons/donkey/75/26-128.png;fillColor=none;" vertex="1" parent="KjkQYHto7W4-pX4ocJMv-1">
          <mxGeometry x="178.5" y="506" width="128" height="128" as="geometry" />
        </mxCell>
        <mxCell id="KjkQYHto7W4-pX4ocJMv-36" value="" style="shape=image;html=1;verticalAlign=top;verticalLabelPosition=bottom;labelBackgroundColor=#ffffff;imageAspect=0;aspect=fixed;image=https://cdn0.iconfinder.com/data/icons/infectious-pandemics-2/480/07-healthy-128.png;fillColor=none;" vertex="1" parent="KjkQYHto7W4-pX4ocJMv-1">
          <mxGeometry x="535.5" y="498" width="144" height="144" as="geometry" />
        </mxCell>
        <mxCell id="KjkQYHto7W4-pX4ocJMv-37" value="" style="ellipse;whiteSpace=wrap;html=1;aspect=fixed;strokeWidth=2;fillColor=#FF0000;" vertex="1" parent="KjkQYHto7W4-pX4ocJMv-1">
          <mxGeometry x="370" y="750" width="20" height="20" as="geometry" />
        </mxCell>
        <mxCell id="KjkQYHto7W4-pX4ocJMv-41" value="&lt;p style=&quot;line-height: 70% ; font-size: 19px&quot;&gt;Hi User&lt;/p&gt;" style="text;strokeColor=none;fillColor=none;html=1;fontSize=24;fontStyle=1;verticalAlign=middle;align=center;" vertex="1" parent="KjkQYHto7W4-pX4ocJMv-1">
          <mxGeometry x="675" y="65" width="100" height="40" as="geometry" />
        </mxCell>
        <mxCell id="KjkQYHto7W4-pX4ocJMv-42" value="" style="endArrow=none;html=1;" edge="1" parent="KjkQYHto7W4-pX4ocJMv-1">
          <mxGeometry width="50" height="50" relative="1" as="geometry">
            <mxPoint x="765" y="329.9999999999998" as="sourcePoint" />
            <mxPoint x="85" y="329.9999999999998" as="targetPoint" />
          </mxGeometry>
        </mxCell>
        <mxCell id="KjkQYHto7W4-pX4ocJMv-43" value="" style="endArrow=none;html=1;" edge="1" parent="KjkQYHto7W4-pX4ocJMv-1">
          <mxGeometry width="50" height="50" relative="1" as="geometry">
            <mxPoint x="765.0000000000005" y="370.0000000000002" as="sourcePoint" />
            <mxPoint x="85" y="370.0000000000002" as="targetPoint" />
          </mxGeometry>
        </mxCell>
        <mxCell id="KjkQYHto7W4-pX4ocJMv-45" value="Today" style="text;strokeColor=none;fillColor=none;html=1;fontSize=24;fontStyle=1;verticalAlign=middle;align=center;" vertex="1" parent="KjkQYHto7W4-pX4ocJMv-1">
          <mxGeometry x="375" y="170" width="100" height="40" as="geometry" />
        </mxCell>
        <mxCell id="KjkQYHto7W4-pX4ocJMv-47" value="" style="endArrow=none;html=1;" edge="1" parent="KjkQYHto7W4-pX4ocJMv-1">
          <mxGeometry width="50" height="50" relative="1" as="geometry">
            <mxPoint x="210" y="370" as="sourcePoint" />
            <mxPoint x="210" y="230" as="targetPoint" />
          </mxGeometry>
        </mxCell>
        <mxCell id="KjkQYHto7W4-pX4ocJMv-48" value="" style="endArrow=none;html=1;" edge="1" parent="KjkQYHto7W4-pX4ocJMv-1">
          <mxGeometry width="50" height="50" relative="1" as="geometry">
            <mxPoint x="350" y="369.9999999999998" as="sourcePoint" />
            <mxPoint x="350" y="229.99999999999977" as="targetPoint" />
          </mxGeometry>
        </mxCell>
        <mxCell id="KjkQYHto7W4-pX4ocJMv-49" value="" style="endArrow=none;html=1;" edge="1" parent="KjkQYHto7W4-pX4ocJMv-1">
          <mxGeometry width="50" height="50" relative="1" as="geometry">
            <mxPoint x="490" y="369.9999999999998" as="sourcePoint" />
            <mxPoint x="490" y="229.99999999999977" as="targetPoint" />
          </mxGeometry>
        </mxCell>
        <mxCell id="KjkQYHto7W4-pX4ocJMv-50" value="" style="endArrow=none;html=1;" edge="1" parent="KjkQYHto7W4-pX4ocJMv-1">
          <mxGeometry width="50" height="50" relative="1" as="geometry">
            <mxPoint x="630" y="369.9999999999998" as="sourcePoint" />
            <mxPoint x="630" y="229.99999999999977" as="targetPoint" />
          </mxGeometry>
        </mxCell>
        <mxCell id="KjkQYHto7W4-pX4ocJMv-52" value="&lt;p style=&quot;line-height: 70% ; font-size: 19px&quot;&gt;Meal #&lt;/p&gt;" style="text;strokeColor=none;fillColor=none;html=1;fontSize=24;fontStyle=1;verticalAlign=middle;align=center;" vertex="1" parent="KjkQYHto7W4-pX4ocJMv-1">
          <mxGeometry x="100" y="210" width="100" height="40" as="geometry" />
        </mxCell>
        <mxCell id="KjkQYHto7W4-pX4ocJMv-54" value="&lt;p style=&quot;line-height: 70% ; font-size: 19px&quot;&gt;Kcal&lt;/p&gt;" style="text;strokeColor=none;fillColor=none;html=1;fontSize=24;fontStyle=1;verticalAlign=middle;align=center;" vertex="1" parent="KjkQYHto7W4-pX4ocJMv-1">
          <mxGeometry x="230" y="210" width="100" height="40" as="geometry" />
        </mxCell>
        <mxCell id="KjkQYHto7W4-pX4ocJMv-55" value="&lt;p style=&quot;line-height: 70% ; font-size: 19px&quot;&gt;Protein&lt;/p&gt;" style="text;strokeColor=none;fillColor=none;html=1;fontSize=24;fontStyle=1;verticalAlign=middle;align=center;" vertex="1" parent="KjkQYHto7W4-pX4ocJMv-1">
          <mxGeometry x="375" y="210" width="100" height="40" as="geometry" />
        </mxCell>
        <mxCell id="KjkQYHto7W4-pX4ocJMv-56" value="&lt;p style=&quot;line-height: 70% ; font-size: 19px&quot;&gt;Carbs&lt;/p&gt;" style="text;strokeColor=none;fillColor=none;html=1;fontSize=24;fontStyle=1;verticalAlign=middle;align=center;" vertex="1" parent="KjkQYHto7W4-pX4ocJMv-1">
          <mxGeometry x="510" y="210" width="100" height="40" as="geometry" />
        </mxCell>
        <mxCell id="KjkQYHto7W4-pX4ocJMv-57" value="&lt;p style=&quot;line-height: 70% ; font-size: 19px&quot;&gt;Fat&lt;/p&gt;" style="text;strokeColor=none;fillColor=none;html=1;fontSize=24;fontStyle=1;verticalAlign=middle;align=center;" vertex="1" parent="KjkQYHto7W4-pX4ocJMv-1">
          <mxGeometry x="650" y="210" width="100" height="40" as="geometry" />
        </mxCell>
        <mxCell id="KjkQYHto7W4-pX4ocJMv-60" value="&lt;p style=&quot;line-height: 70% ; font-size: 19px&quot;&gt;# 1&lt;/p&gt;" style="text;strokeColor=none;fillColor=none;html=1;fontSize=24;fontStyle=1;verticalAlign=middle;align=center;" vertex="1" parent="KjkQYHto7W4-pX4ocJMv-1">
          <mxGeometry x="100" y="250" width="100" height="40" as="geometry" />
        </mxCell>
        <mxCell id="KjkQYHto7W4-pX4ocJMv-62" value="&lt;p style=&quot;line-height: 70% ; font-size: 19px&quot;&gt;540&lt;/p&gt;" style="text;strokeColor=none;fillColor=none;html=1;fontSize=24;fontStyle=1;verticalAlign=middle;align=center;" vertex="1" parent="KjkQYHto7W4-pX4ocJMv-1">
          <mxGeometry x="230" y="250" width="100" height="40" as="geometry" />
        </mxCell>
        <mxCell id="KjkQYHto7W4-pX4ocJMv-63" value="&lt;p style=&quot;line-height: 70% ; font-size: 19px&quot;&gt;30&lt;/p&gt;" style="text;strokeColor=none;fillColor=none;html=1;fontSize=24;fontStyle=1;verticalAlign=middle;align=center;" vertex="1" parent="KjkQYHto7W4-pX4ocJMv-1">
          <mxGeometry x="375" y="250" width="100" height="40" as="geometry" />
        </mxCell>
        <mxCell id="KjkQYHto7W4-pX4ocJMv-64" value="&lt;p style=&quot;line-height: 70% ; font-size: 19px&quot;&gt;60&lt;/p&gt;" style="text;strokeColor=none;fillColor=none;html=1;fontSize=24;fontStyle=1;verticalAlign=middle;align=center;" vertex="1" parent="KjkQYHto7W4-pX4ocJMv-1">
          <mxGeometry x="510" y="250" width="100" height="40" as="geometry" />
        </mxCell>
        <mxCell id="KjkQYHto7W4-pX4ocJMv-65" value="&lt;p style=&quot;line-height: 70% ; font-size: 19px&quot;&gt;10&lt;/p&gt;" style="text;strokeColor=none;fillColor=none;html=1;fontSize=24;fontStyle=1;verticalAlign=middle;align=center;" vertex="1" parent="KjkQYHto7W4-pX4ocJMv-1">
          <mxGeometry x="650" y="250" width="100" height="40" as="geometry" />
        </mxCell>
      </root>
    </mxGraphModel>
  </diagram>
  <diagram id="r2toZlhhoVnjtAwMcAkW" name="Products Page">
    <mxGraphModel dx="1663" dy="945" grid="1" gridSize="10" guides="1" tooltips="1" connect="1" arrows="1" fold="1" page="1" pageScale="1" pageWidth="850" pageHeight="1100" math="0" shadow="0">
      <root>
        <mxCell id="ihIhJj5uiBKCdjf65k7Z-0" />
        <mxCell id="ihIhJj5uiBKCdjf65k7Z-1" parent="ihIhJj5uiBKCdjf65k7Z-0" />
        <mxCell id="ihIhJj5uiBKCdjf65k7Z-2" value="" style="rounded=0;whiteSpace=wrap;html=1;" vertex="1" parent="ihIhJj5uiBKCdjf65k7Z-1">
          <mxGeometry x="40" y="40" width="770" height="1010" as="geometry" />
        </mxCell>
        <mxCell id="ihIhJj5uiBKCdjf65k7Z-3" value="" style="rounded=1;whiteSpace=wrap;html=1;fillColor=none;" vertex="1" parent="ihIhJj5uiBKCdjf65k7Z-1">
          <mxGeometry x="75" y="290" width="700" height="730" as="geometry" />
        </mxCell>
        <mxCell id="ihIhJj5uiBKCdjf65k7Z-4" value="" style="rounded=0;whiteSpace=wrap;html=1;" vertex="1" parent="ihIhJj5uiBKCdjf65k7Z-1">
          <mxGeometry x="40" y="40" width="770" height="90" as="geometry" />
        </mxCell>
        <mxCell id="ihIhJj5uiBKCdjf65k7Z-11" value="" style="endArrow=none;html=1;" edge="1" parent="ihIhJj5uiBKCdjf65k7Z-1">
          <mxGeometry width="50" height="50" relative="1" as="geometry">
            <mxPoint x="120" y="65" as="sourcePoint" />
            <mxPoint x="60" y="65.00000000000023" as="targetPoint" />
          </mxGeometry>
        </mxCell>
        <mxCell id="ihIhJj5uiBKCdjf65k7Z-12" value="" style="endArrow=none;html=1;" edge="1" parent="ihIhJj5uiBKCdjf65k7Z-1">
          <mxGeometry width="50" height="50" relative="1" as="geometry">
            <mxPoint x="135" y="84.85999999999967" as="sourcePoint" />
            <mxPoint x="75" y="84.86000000000013" as="targetPoint" />
          </mxGeometry>
        </mxCell>
        <mxCell id="ihIhJj5uiBKCdjf65k7Z-13" value="" style="endArrow=none;html=1;" edge="1" parent="ihIhJj5uiBKCdjf65k7Z-1">
          <mxGeometry width="50" height="50" relative="1" as="geometry">
            <mxPoint x="120" y="104.99999999999977" as="sourcePoint" />
            <mxPoint x="60" y="105.00000000000023" as="targetPoint" />
          </mxGeometry>
        </mxCell>
        <mxCell id="ihIhJj5uiBKCdjf65k7Z-19" value="&lt;p style=&quot;line-height: 70% ; font-size: 19px&quot;&gt;Hi User&lt;/p&gt;" style="text;strokeColor=none;fillColor=none;html=1;fontSize=24;fontStyle=1;verticalAlign=middle;align=center;" vertex="1" parent="ihIhJj5uiBKCdjf65k7Z-1">
          <mxGeometry x="675" y="65" width="100" height="40" as="geometry" />
        </mxCell>
        <mxCell id="ihIhJj5uiBKCdjf65k7Z-33" value="&lt;p style=&quot;line-height: 70% ; font-size: 19px&quot;&gt;Chicken&lt;font color=&quot;#666666&quot;&gt;&amp;nbsp; &amp;nbsp;K: 124 / P: 13 / C: 30 / F: 3&lt;/font&gt;&lt;/p&gt;" style="text;strokeColor=none;fillColor=none;html=1;fontSize=24;fontStyle=1;verticalAlign=middle;align=center;" vertex="1" parent="ihIhJj5uiBKCdjf65k7Z-1">
          <mxGeometry x="100" y="370" width="380" height="40" as="geometry" />
        </mxCell>
        <mxCell id="ihIhJj5uiBKCdjf65k7Z-37" value="" style="rounded=1;whiteSpace=wrap;html=1;fillColor=none;" vertex="1" parent="ihIhJj5uiBKCdjf65k7Z-1">
          <mxGeometry x="75" y="210" width="700" height="60" as="geometry" />
        </mxCell>
        <mxCell id="ihIhJj5uiBKCdjf65k7Z-38" value="&lt;p style=&quot;line-height: 70% ; font-size: 19px&quot;&gt;&lt;font color=&quot;#919191&quot;&gt;Search Product&lt;/font&gt;&lt;/p&gt;" style="text;strokeColor=none;fillColor=none;html=1;fontSize=24;fontStyle=1;verticalAlign=middle;align=center;" vertex="1" parent="ihIhJj5uiBKCdjf65k7Z-1">
          <mxGeometry x="120" y="220" width="100" height="40" as="geometry" />
        </mxCell>
        <mxCell id="ihIhJj5uiBKCdjf65k7Z-39" value="" style="rounded=1;whiteSpace=wrap;html=1;fillColor=none;" vertex="1" parent="ihIhJj5uiBKCdjf65k7Z-1">
          <mxGeometry x="720" y="220" width="40" height="40" as="geometry" />
        </mxCell>
        <mxCell id="ihIhJj5uiBKCdjf65k7Z-40" value="&lt;p style=&quot;line-height: 70%&quot;&gt;&lt;font color=&quot;#009900&quot; style=&quot;font-size: 38px&quot;&gt;+&lt;/font&gt;&lt;/p&gt;" style="text;strokeColor=none;html=1;fontSize=24;fontStyle=1;verticalAlign=middle;align=center;fillColor=#ffffff;" vertex="1" parent="ihIhJj5uiBKCdjf65k7Z-1">
          <mxGeometry x="725" y="232.5" width="30" height="15" as="geometry" />
        </mxCell>
        <mxCell id="ihIhJj5uiBKCdjf65k7Z-51" value="" style="endArrow=none;html=1;" edge="1" parent="ihIhJj5uiBKCdjf65k7Z-1">
          <mxGeometry width="50" height="50" relative="1" as="geometry">
            <mxPoint x="765.0000000000005" y="360.0000000000002" as="sourcePoint" />
            <mxPoint x="85" y="360.0000000000002" as="targetPoint" />
          </mxGeometry>
        </mxCell>
        <mxCell id="ihIhJj5uiBKCdjf65k7Z-52" value="" style="endArrow=none;html=1;" edge="1" parent="ihIhJj5uiBKCdjf65k7Z-1">
          <mxGeometry width="50" height="50" relative="1" as="geometry">
            <mxPoint x="765" y="419.9999999999998" as="sourcePoint" />
            <mxPoint x="85" y="419.9999999999998" as="targetPoint" />
          </mxGeometry>
        </mxCell>
        <mxCell id="ihIhJj5uiBKCdjf65k7Z-54" value="" style="rounded=1;whiteSpace=wrap;html=1;fillColor=none;" vertex="1" parent="ihIhJj5uiBKCdjf65k7Z-1">
          <mxGeometry x="715" y="370" width="40" height="40" as="geometry" />
        </mxCell>
        <mxCell id="ihIhJj5uiBKCdjf65k7Z-56" value="" style="rounded=1;whiteSpace=wrap;html=1;fillColor=none;" vertex="1" parent="ihIhJj5uiBKCdjf65k7Z-1">
          <mxGeometry x="660" y="370" width="40" height="40" as="geometry" />
        </mxCell>
        <mxCell id="ihIhJj5uiBKCdjf65k7Z-58" value="" style="endArrow=none;html=1;" edge="1" parent="ihIhJj5uiBKCdjf65k7Z-1">
          <mxGeometry width="50" height="50" relative="1" as="geometry">
            <mxPoint x="765.0000000000005" y="480.0000000000002" as="sourcePoint" />
            <mxPoint x="85" y="480.0000000000002" as="targetPoint" />
          </mxGeometry>
        </mxCell>
        <mxCell id="ihIhJj5uiBKCdjf65k7Z-59" value="" style="endArrow=none;html=1;" edge="1" parent="ihIhJj5uiBKCdjf65k7Z-1">
          <mxGeometry width="50" height="50" relative="1" as="geometry">
            <mxPoint x="765" y="539.9999999999998" as="sourcePoint" />
            <mxPoint x="85" y="539.9999999999998" as="targetPoint" />
          </mxGeometry>
        </mxCell>
        <mxCell id="ihIhJj5uiBKCdjf65k7Z-60" value="" style="endArrow=none;html=1;" edge="1" parent="ihIhJj5uiBKCdjf65k7Z-1">
          <mxGeometry width="50" height="50" relative="1" as="geometry">
            <mxPoint x="765.0000000000005" y="600.0000000000002" as="sourcePoint" />
            <mxPoint x="85" y="600.0000000000002" as="targetPoint" />
          </mxGeometry>
        </mxCell>
        <mxCell id="ihIhJj5uiBKCdjf65k7Z-61" value="" style="endArrow=none;html=1;" edge="1" parent="ihIhJj5uiBKCdjf65k7Z-1">
          <mxGeometry width="50" height="50" relative="1" as="geometry">
            <mxPoint x="765" y="659.9999999999998" as="sourcePoint" />
            <mxPoint x="85" y="659.9999999999998" as="targetPoint" />
          </mxGeometry>
        </mxCell>
        <mxCell id="ihIhJj5uiBKCdjf65k7Z-62" value="" style="endArrow=none;html=1;" edge="1" parent="ihIhJj5uiBKCdjf65k7Z-1">
          <mxGeometry width="50" height="50" relative="1" as="geometry">
            <mxPoint x="765.0000000000005" y="720.0000000000002" as="sourcePoint" />
            <mxPoint x="85" y="720.0000000000002" as="targetPoint" />
          </mxGeometry>
        </mxCell>
        <mxCell id="ihIhJj5uiBKCdjf65k7Z-63" value="" style="endArrow=none;html=1;" edge="1" parent="ihIhJj5uiBKCdjf65k7Z-1">
          <mxGeometry width="50" height="50" relative="1" as="geometry">
            <mxPoint x="765" y="779.9999999999998" as="sourcePoint" />
            <mxPoint x="85" y="779.9999999999998" as="targetPoint" />
          </mxGeometry>
        </mxCell>
        <mxCell id="ihIhJj5uiBKCdjf65k7Z-74" value="" style="html=1;verticalLabelPosition=bottom;align=center;labelBackgroundColor=#ffffff;verticalAlign=top;strokeWidth=2;strokeColor=#0080F0;shadow=0;dashed=0;shape=mxgraph.ios7.icons.pen;fillColor=#ffffff;" vertex="1" parent="ihIhJj5uiBKCdjf65k7Z-1">
          <mxGeometry x="670" y="382.5" width="20" height="19.7" as="geometry" />
        </mxCell>
        <mxCell id="ihIhJj5uiBKCdjf65k7Z-76" value="" style="shape=image;html=1;verticalAlign=top;verticalLabelPosition=bottom;labelBackgroundColor=#ffffff;imageAspect=0;aspect=fixed;image=https://cdn3.iconfinder.com/data/icons/line-icons-set/128/1-04-128.png;strokeColor=#000000;strokeWidth=2;fillColor=#ffffff;" vertex="1" parent="ihIhJj5uiBKCdjf65k7Z-1">
          <mxGeometry x="721" y="376" width="28" height="28" as="geometry" />
        </mxCell>
        <mxCell id="ihIhJj5uiBKCdjf65k7Z-77" value="&lt;p style=&quot;line-height: 70% ; font-size: 19px&quot;&gt;Rice&lt;font color=&quot;#666666&quot;&gt;&amp;nbsp; &amp;nbsp;K: 339 / P: 7 / C: 77 / F: 1&lt;/font&gt;&lt;/p&gt;" style="text;strokeColor=none;fillColor=none;html=1;fontSize=24;fontStyle=1;verticalAlign=middle;align=center;" vertex="1" parent="ihIhJj5uiBKCdjf65k7Z-1">
          <mxGeometry x="100" y="430" width="380" height="40" as="geometry" />
        </mxCell>
        <mxCell id="ihIhJj5uiBKCdjf65k7Z-78" value="" style="rounded=1;whiteSpace=wrap;html=1;fillColor=none;" vertex="1" parent="ihIhJj5uiBKCdjf65k7Z-1">
          <mxGeometry x="715" y="430" width="40" height="40" as="geometry" />
        </mxCell>
        <mxCell id="ihIhJj5uiBKCdjf65k7Z-79" value="" style="html=1;verticalLabelPosition=bottom;align=center;labelBackgroundColor=#ffffff;verticalAlign=top;strokeWidth=2;strokeColor=#0080F0;shadow=0;dashed=0;shape=mxgraph.ios7.icons.pen;fillColor=#ffffff;" vertex="1" parent="ihIhJj5uiBKCdjf65k7Z-1">
          <mxGeometry x="670" y="442.5" width="20" height="19.7" as="geometry" />
        </mxCell>
        <mxCell id="ihIhJj5uiBKCdjf65k7Z-80" value="" style="shape=image;html=1;verticalAlign=top;verticalLabelPosition=bottom;labelBackgroundColor=#ffffff;imageAspect=0;aspect=fixed;image=https://cdn3.iconfinder.com/data/icons/line-icons-set/128/1-04-128.png;strokeColor=#000000;strokeWidth=2;fillColor=#ffffff;" vertex="1" parent="ihIhJj5uiBKCdjf65k7Z-1">
          <mxGeometry x="721" y="436" width="28" height="28" as="geometry" />
        </mxCell>
        <mxCell id="ihIhJj5uiBKCdjf65k7Z-81" value="&lt;p style=&quot;line-height: 70% ; font-size: 19px&quot;&gt;Banana&lt;font color=&quot;#666666&quot;&gt;&amp;nbsp; &amp;nbsp;K: 49 / P: 1 / C: 22 / F: 0&lt;/font&gt;&lt;/p&gt;" style="text;strokeColor=none;fillColor=none;html=1;fontSize=24;fontStyle=1;verticalAlign=middle;align=center;" vertex="1" parent="ihIhJj5uiBKCdjf65k7Z-1">
          <mxGeometry x="98" y="495" width="380" height="40" as="geometry" />
        </mxCell>
        <mxCell id="ihIhJj5uiBKCdjf65k7Z-82" value="" style="rounded=1;whiteSpace=wrap;html=1;fillColor=none;" vertex="1" parent="ihIhJj5uiBKCdjf65k7Z-1">
          <mxGeometry x="713" y="495" width="40" height="40" as="geometry" />
        </mxCell>
        <mxCell id="ihIhJj5uiBKCdjf65k7Z-83" value="" style="rounded=1;whiteSpace=wrap;html=1;fillColor=none;" vertex="1" parent="ihIhJj5uiBKCdjf65k7Z-1">
          <mxGeometry x="658" y="495" width="40" height="40" as="geometry" />
        </mxCell>
        <mxCell id="ihIhJj5uiBKCdjf65k7Z-84" value="" style="html=1;verticalLabelPosition=bottom;align=center;labelBackgroundColor=#ffffff;verticalAlign=top;strokeWidth=2;strokeColor=#0080F0;shadow=0;dashed=0;shape=mxgraph.ios7.icons.pen;fillColor=#ffffff;" vertex="1" parent="ihIhJj5uiBKCdjf65k7Z-1">
          <mxGeometry x="668" y="507.5" width="20" height="19.7" as="geometry" />
        </mxCell>
        <mxCell id="ihIhJj5uiBKCdjf65k7Z-85" value="" style="shape=image;html=1;verticalAlign=top;verticalLabelPosition=bottom;labelBackgroundColor=#ffffff;imageAspect=0;aspect=fixed;image=https://cdn3.iconfinder.com/data/icons/line-icons-set/128/1-04-128.png;strokeColor=#000000;strokeWidth=2;fillColor=#ffffff;" vertex="1" parent="ihIhJj5uiBKCdjf65k7Z-1">
          <mxGeometry x="719" y="501" width="28" height="28" as="geometry" />
        </mxCell>
        <mxCell id="ihIhJj5uiBKCdjf65k7Z-91" value="" style="rounded=1;whiteSpace=wrap;html=1;fillColor=none;" vertex="1" parent="ihIhJj5uiBKCdjf65k7Z-1">
          <mxGeometry x="658" y="430" width="40" height="40" as="geometry" />
        </mxCell>
      </root>
    </mxGraphModel>
  </diagram>
</mxfile>
